<svg id="Group_263" data-name="Group 263" xmlns="http://www.w3.org/2000/svg" viewBox="-6083 5325 122 122">
  <defs>
    <style>
      .cls-1 {
        fill: #dcdcdc;
      }

      .cls-2 {
        fill: #cdcbcd;
      }

      .cls-3, .cls-6 {
        fill: #707070;
      }

      .cls-3 {
        opacity: 0.2;
      }

      .cls-4 {
        fill: #a8a9ab;
      }

      .cls-5 {
        fill: #9c9d9f;
      }

      .cls-5, .cls-6 {
        opacity: 0.15;
      }
    </style>
  </defs>
  <path id="Path_332" data-name="Path 332" class="cls-1" d="M61,0A61,61,0,1,1,0,61,61,61,0,0,1,61,0Z" transform="translate(-6083 5325)"/>
  <g id="notification_1_" data-name="notification (1)" transform="translate(-6087.925 5349)">
    <path id="Path_333" data-name="Path 333" class="cls-2" d="M7.046,0A7.046,7.046,0,1,1,0,7.046,7.046,7.046,0,0,1,7.046,0Z" transform="translate(51.119 60.306)"/>
    <path id="Path_322" data-name="Path 322" class="cls-3" d="M154.462,420.821a7.049,7.049,0,1,0-1.979,6.226,4.689,4.689,0,0,1-4.872-2.484,1.364,1.364,0,0,1,.993-1.939l5.949-1.049A7.061,7.061,0,0,0,154.462,420.821Z" transform="translate(-89.357 -354.692)"/>
    <path id="Path_334" data-name="Path 334" class="cls-4" d="M7.046,0A7.046,7.046,0,1,1,0,7.046,7.046,7.046,0,0,1,7.046,0Z" transform="translate(51.914 0)"/>
    <path id="Path_323" data-name="Path 323" class="cls-3" d="M159.376,12.8c-7.258,1.551-11.2-5.549-8.916-9.557a7.046,7.046,0,1,0,8.916,9.557Z" transform="translate(-94.033 -2.771)"/>
    <path id="Path_324" data-name="Path 324" class="cls-2" d="M89.486,63.786l-10.8,1.9A14.742,14.742,0,0,0,66.731,82.768l1.7,9.635a24.628,24.628,0,0,1-1.793,14.378l-2.007,4.463,53.648-9.46-3.413-3.507a24.627,24.627,0,0,1-6.6-12.9l-1.7-9.635A14.742,14.742,0,0,0,89.486,63.786Z" transform="translate(-24.533 -54.324)"/>
    <path id="Path_325" data-name="Path 325" class="cls-4" d="M96.8,336.115,40.98,345.957a3.733,3.733,0,0,1-4.325-3.028l-.672-3.811a3.733,3.733,0,0,1,3.028-4.325l55.819-9.842a3.733,3.733,0,0,1,4.325,3.028l.672,3.811A3.733,3.733,0,0,1,96.8,336.115Z" transform="translate(0 -277.681)"/>
    <path id="Path_326" data-name="Path 326" class="cls-3" d="M69.222,356.36l-30.211,5.327a3.733,3.733,0,0,0-3.028,4.325l.672,3.811a3.733,3.733,0,0,0,4.325,3.028l34.789-6.134C67.833,365.6,66.555,358.685,69.222,356.36Z" transform="translate(0 -304.575)"/>
    <g id="Group_262" data-name="Group 262" transform="translate(40.097 11.924)">
      <path id="Path_330" data-name="Path 330" class="cls-5" d="M89.206,246.13a24.622,24.622,0,0,1-.7,6.34l43.934-7.747A24.622,24.622,0,0,1,129.618,239Z" transform="translate(-85.038 -216.197)"/>
      <path id="Path_331" data-name="Path 331" class="cls-6" d="M64.63,127.05l40.841-7.2c-14.594-2.65-38.758-12.5-28.963-37.8a14.746,14.746,0,0,0-9.777,16.521l1.7,9.635a24.628,24.628,0,0,1-1.793,14.378Z" transform="translate(-64.63 -82.053)"/>
    </g>
  </g>
</svg>
