<svg xmlns="http://www.w3.org/2000/svg" viewBox="-4635 5521 512 512"><defs><style>.a{fill:#dcdcdc;}.b{fill:#a8a9ab;}.c{fill:#e6e9ee;}</style></defs><g transform="translate(-4635 5521)"><circle class="a" cx="256" cy="256" r="256"/><path class="b" d="M205.056,346.5l119.5-119.5a68.453,68.453,0,0,0,89.9-87.721L366.71,187.023l-31.258-8.376-8.376-31.258L374.825,99.64a68.453,68.453,0,0,0-87.721,89.9l-119.5,119.5a57.291,57.291,0,0,0-70.789,75.049L136.8,344.105l26.173,7.014,7.014,26.173L130,417.279A57.295,57.295,0,0,0,205.056,346.5Z"/><path class="b" d="M205.056,346.491l119.5-119.5a68.453,68.453,0,0,0,89.9-87.721L366.71,187.023l-31.258-8.376L162.975,351.124l7.014,26.173L130,417.284a57.3,57.3,0,0,0,75.054-70.793Z"/><path class="c" d="M198.938,141.071l-48.614-13.025L114.74,163.635l13.025,48.614,48.614,13.025,35.589-35.589ZM148.014,191.99a21.686,21.686,0,1,1,30.669,0A21.688,21.688,0,0,1,148.014,191.99Z"/><path class="c" d="M198.938,141.071l-20.255,20.255A21.686,21.686,0,0,1,148.014,192L127.759,212.25l48.614,13.025,35.589-35.589Z"/><path class="c" d="M335.186,298.168,291.6,323.333v50.324l43.587,25.165,43.587-25.165V323.333Zm0,72.013A21.683,21.683,0,1,1,356.869,348.5,21.683,21.683,0,0,1,335.186,370.181Z"/><path class="c" d="M335.186,298.168v28.641a21.683,21.683,0,0,1,0,43.366v28.641l43.587-25.165V323.327Z"/></g></svg>