<svg xmlns="http://www.w3.org/2000/svg" viewBox="-1118 2502 122 122"><defs><style>.a{fill:#dcdcdc;}.b{fill:#fff;}.c{fill:#e6e9ee;}.d{fill:#a8a9ab;}</style></defs><g transform="translate(-1118 2502)"><circle class="a" cx="61" cy="61" r="61"/><g transform="translate(29.587 22.767)"><rect class="b" width="24.112" height="25.361" transform="translate(19.405)"/><path class="b" d="M166.62,118.335V94.8H142.6v23.535a31.413,31.413,0,1,0,24.016,0Z" transform="translate(-123.2 -94.8)"/></g><rect class="c" width="24.112" height="7.301" transform="translate(48.992 22.767)"/><path class="b" d="M208.628,74.935H183.268a5.617,5.617,0,0,1-5.668-5.668h0a5.617,5.617,0,0,1,5.668-5.668h25.361a5.617,5.617,0,0,1,5.668,5.668h0A5.678,5.678,0,0,1,208.628,74.935Z" transform="translate(-134.948 -48.326)"/><path class="d" d="M193.2,266.659a28,28,0,0,1-56,0,28.346,28.346,0,0,1,3.843-14.217c6.532-1.153,14.89-.961,25.169,2.882,10.567,3.939,18.924,3.65,25.265,1.825A26.112,26.112,0,0,1,193.2,266.659Z" transform="translate(-104.25 -191.345)"/><circle class="b" cx="3.746" cy="3.746" r="3.746" transform="translate(61.384 72.72)"/><g transform="translate(53.891 39.866)"><path class="d" d="M3.746,0A3.746,3.746,0,1,1,0,3.746,3.746,3.746,0,0,1,3.746,0Z" transform="translate(7.493)"/><circle class="d" cx="2.978" cy="2.978" r="2.978" transform="translate(0 8.646)"/></g><g transform="translate(46.206 68.973)"><circle class="b" cx="4.995" cy="4.995" r="4.995" transform="translate(3.746 10.087)"/><circle class="b" cx="3.746" cy="3.746" r="3.746"/></g></g></svg>