<svg xmlns="http://www.w3.org/2000/svg" viewBox="520 2118 122 122"><defs><style>.a{fill:#dcdcdc;}.b{fill:#acb3ba;}.c{fill:#fff;}.d{fill:#e6e9ee;}.e{fill:#a8a9ab;}</style></defs><g transform="translate(520 2118)"><circle class="a" cx="61" cy="61" r="61"/><path class="b" d="M127.3,109.742l1.039,68.513,62.28-.966-.145-10.436L189.58,108.8Z" transform="translate(-96.546 -82.516)"/><path class="c" d="M95.9,97.99l18.481,65.977,37.59-10.533-2.827-10.05,22.419-6.281L155.885,81.2Z" transform="translate(-72.732 -61.583)"/><path class="d" d="M319.127,328.931,338.719,312.6,316.3,318.881Z" transform="translate(-239.887 -237.081)"/><rect class="e" width="23.312" height="16.113" transform="matrix(-0.963, 0.27, -0.27, -0.963, 62.523, 69.517)"/><g transform="translate(62.371 46.529)"><rect class="d" width="2.706" height="23.312" transform="matrix(-0.27, -0.963, 0.963, -0.27, 4.367, 21.813)"/><rect class="d" width="2.706" height="23.312" transform="matrix(-0.27, -0.963, 0.963, -0.27, 2.55, 15.354)"/><rect class="d" width="2.706" height="23.312" transform="matrix(-0.27, -0.963, 0.963, -0.27, 0.73, 8.895)"/></g><rect class="b" width="1.353" height="51.457" transform="matrix(-0.27, -0.963, 0.963, -0.27, 33.793, 55.228)"/><g transform="translate(41.149 65.913)"><rect class="d" width="2.706" height="23.312" transform="matrix(-0.27, -0.963, 0.963, -0.27, 27.384, 8.895)"/><rect class="d" width="2.706" height="23.312" transform="matrix(-0.27, -0.963, 0.963, -0.27, 29.193, 15.328)"/><rect class="d" width="2.706" height="23.312" transform="matrix(-0.27, -0.963, 0.963, -0.27, 0.73, 16.341)"/><rect class="d" width="2.706" height="23.312" transform="matrix(-0.27, -0.963, 0.963, -0.27, 2.545, 22.798)"/></g><g transform="translate(29.667 27.198)"><path class="e" d="M130.241,156.376l2.368-.676,2.971,10.63-2.368.676-6.933-5.242,1.86,6.668-2.368.676-2.971-10.63,2.223-.628,7.127,5.387Z" transform="translate(-122.8 -145.283)"/><path class="e" d="M187.458,142.3l.6,2.1-5.291,1.474.6,2.2,4.759-1.329.556,2.029-4.759,1.329.628,2.2,5.46-1.522.58,2.1-7.827,2.2L179.8,144.45Z" transform="translate(-166.03 -135.12)"/><path class="e" d="M227.178,130.68l.169-6.644,2.488-.7,3.575,5.581.411-6.692,2.561-.725-.725,11.669-1.764.483-4.4-6.74-.242,8.045-1.764.483-6.692-9.591,2.561-.725Z" transform="translate(-197.125 -119.345)"/><path class="e" d="M300.006,115.485a1.026,1.026,0,0,0-.145.846.912.912,0,0,0,.628.628,7.783,7.783,0,0,0,2.1.1,5.768,5.768,0,0,1,2.657.459,2.86,2.86,0,0,1,1.449,1.933,3.01,3.01,0,0,1-.411,2.609,4.5,4.5,0,0,1-2.561,1.691,6.839,6.839,0,0,1-5.073-.6l.918-2.126a5.152,5.152,0,0,0,3.6.6,1.666,1.666,0,0,0,.942-.58,1.019,1.019,0,0,0,.169-.87.96.96,0,0,0-.6-.652,4.641,4.641,0,0,0-1.715-.121,7.158,7.158,0,0,1-3.044-.387,3.286,3.286,0,0,1-1.039-4.614,4.494,4.494,0,0,1,2.488-1.57,7.478,7.478,0,0,1,2.223-.242,6.235,6.235,0,0,1,2.15.507l-.725,2.078a4.772,4.772,0,0,0-3.141-.242A1.444,1.444,0,0,0,300.006,115.485Z" transform="translate(-255.144 -112.581)"/></g></g></svg>