<svg xmlns="http://www.w3.org/2000/svg" viewBox="-1589 2514 122 122"><defs><style>.a{fill:#dcdcdc;}.b{fill:#a8a9ab;opacity:0.49;}.c{fill:#fff;}.d{fill:#c2c2c2;}.e{fill:#cdcbcd;}.f{fill:#e6e9ee;}.g{fill:#e4e4e4;}</style></defs><g transform="translate(-1589 2514)"><path class="a" d="M61,0A61,61,0,1,1,0,61,61,61,0,0,1,61,0Z"/><path class="b" d="M247.683,114.214H242.4V34.29a2.685,2.685,0,0,1,2.69-2.69h0a2.685,2.685,0,0,1,2.69,2.69v79.924h-.1Z" transform="translate(-184.186 -24.011)"/><g transform="translate(61 12.488)"><path class="c" d="M254,52Z" transform="translate(-254 -52)"/><path class="c" d="M254,52Z" transform="translate(-254 -52)"/></g><path class="d" d="M106.214,202.312h0A9.429,9.429,0,0,1,96.8,192.9v-2.5h18.924v2.5A9.575,9.575,0,0,1,106.214,202.312Z" transform="translate(-73.553 -144.674)"/><path class="d" d="M185.014,202.312h0A9.429,9.429,0,0,1,175.6,192.9v-2.5h18.828v2.5A9.429,9.429,0,0,1,185.014,202.312Z" transform="translate(-133.428 -144.674)"/><path class="d" d="M263.414,202.312h0A9.429,9.429,0,0,1,254,192.9v-2.5h18.924v2.5A9.45,9.45,0,0,1,263.414,202.312Z" transform="translate(-193 -144.674)"/><path class="d" d="M342.214,202.312h0A9.429,9.429,0,0,1,332.8,192.9v-2.5h18.924v2.5A9.45,9.45,0,0,1,342.214,202.312Z" transform="translate(-252.876 -144.674)"/><path class="e" d="M272.924,91.317h18.924A38.476,38.476,0,0,0,254,60h0A36.59,36.59,0,0,1,272.924,91.317Z" transform="translate(-193 -45.591)"/><path class="c" d="M194.112,60a36.59,36.59,0,0,0-18.924,31.317h18.924V60Z" transform="translate(-133.112 -45.591)"/><path class="f" d="M254,60V91.317h18.924A36.59,36.59,0,0,0,254,60Z" transform="translate(-193 -45.591)"/><path class="e" d="M134.249,60h0A38.476,38.476,0,0,0,96.4,91.317h18.924A36.59,36.59,0,0,1,134.249,60Z" transform="translate(-73.249 -45.591)"/><path class="g" d="M31.2,376a61.007,61.007,0,0,0,107.014,0Z" transform="translate(-23.707 -285.701)"/></g></svg>