<!-- Generated by IcoMoon.io -->
<svg version="1.1" xmlns="http://www.w3.org/2000/svg" width="1024" height="1024" viewBox="0 0 1024 1024">
<title>one-finger-tap</title>
<g id="icomoon-ignore">
</g>
<path fill="#fff" d="M512 286.384c19.795-20.201 32-47.867 32-78.384 0-61.856-50.144-112-112-112s-112 50.144-112 112c0 30.517 12.205 58.183 32 78.384v-78.352c0-43.906 35.817-80.032 80-80.032 44.491 0 80 35.831 80 80.032v78.352zM608 367.709c0-26.349-21.306-47.709-48-47.709-26.51 0-48 21.639-48 47.709v144.291h-32v-303.724c0-26.662-21.306-48.276-48-48.276-26.51 0-48 21.325-48 48.276v329.271c-65.869-70.413-152.588-147.815-188.127-112.084-34.789 34.977 54.859 131.36 180.043 341.996 56.404 94.905 127.773 160.526 248.084 160.541 132.548 0 240-107.452 240-240v-255.795c0-26.623-21.306-48.205-48-48.205-26.51 0-48 21.647-48 48.205v79.795h-32v-112.28c0-26.355-21.306-47.72-48-47.72-26.51 0-48 21.201-48 47.72v80.28h-32v-112.291z"></path>
</svg>
